<?xml version="1.0" encoding="UTF-8"?>
<svg id="Layer_1" data-name="Layer 1" xmlns="http://www.w3.org/2000/svg" viewBox="0 0 500 500">
  <defs>
    <style>
      .cls-1 {
        fill: #1e90ff;
      }
    </style>
  </defs>
  <path class="cls-1" d="m250,450c2.57,0,5.12-.1,7.66-.19-2.54.12-5.09.19-7.66.19Z"/>
  <path class="cls-1" d="m257.66,449.81c6.55-.3,13.01-.95,19.42-1.83v-144.97h51.74l8.13-52.55h-59.88v-28.75c0-21.83,7.13-41.23,27.54-41.23h32.84v-45.88c-5.76-.76-17.99-2.48-41.03-2.48-48.16,0-76.35,25.42-76.35,83.32v35.02h-49.47v52.55h49.47v144.52c7.38,1.16,14.75,1.97,22.33,2.32-106.92-3.99-192.42-91.92-192.42-199.85S139.54,50,250,50s200,89.54,200,200-85.43,195.77-192.34,199.81Z"/>
</svg>