<?xml version="1.0" encoding="UTF-8"?>
<svg id="Layer_1" data-name="Layer 1" xmlns="http://www.w3.org/2000/svg" viewBox="0 0 500 500">
  <defs>
    <style>
      .cls-1 {
        fill: #1e90ff;
      }
    </style>
  </defs>
  <path class="cls-1" d="m316.67,116.67h-133.33c-37.39,0-66.67,29.28-66.67,66.67v133.33c0,37.39,29.28,66.67,66.67,66.67h133.33c37.39,0,66.67-29.28,66.67-66.67v-133.33c0-37.39-29.28-66.67-66.67-66.67Zm-66.67,211.15c-42.88,0-77.76-34.88-77.76-77.81s34.88-77.76,77.76-77.76,77.76,34.88,77.76,77.76-34.88,77.81-77.76,77.81Zm77.76-155.57c-6.13,0-11.09-4.96-11.09-11.09s4.96-11.15,11.09-11.15,11.09,5.01,11.09,11.15-4.96,11.09-11.09,11.09Zm-77.76,22.24c-30.67,0-55.57,24.91-55.57,55.52s24.91,55.57,55.57,55.57,55.57-24.91,55.57-55.57-24.96-55.52-55.57-55.52Zm66.67-77.81h-133.33c-37.39,0-66.67,29.28-66.67,66.67v133.33c0,37.39,29.28,66.67,66.67,66.67h133.33c37.39,0,66.67-29.28,66.67-66.67v-133.33c0-37.39-29.28-66.67-66.67-66.67Zm-66.67,211.15c-42.88,0-77.76-34.88-77.76-77.81s34.88-77.76,77.76-77.76,77.76,34.88,77.76,77.76-34.88,77.81-77.76,77.81Zm77.76-155.57c-6.13,0-11.09-4.96-11.09-11.09s4.96-11.15,11.09-11.15,11.09,5.01,11.09,11.15-4.96,11.09-11.09,11.09Zm-77.76,22.24c-30.67,0-55.57,24.91-55.57,55.52s24.91,55.57,55.57,55.57,55.57-24.91,55.57-55.57-24.96-55.52-55.57-55.52Zm96-144.48h-192c-57.44,0-104,46.56-104,104v192c0,57.44,46.56,104,104,104h192c57.44,0,104-46.56,104-104v-192c0-57.44-46.56-104-104-104Zm59.52,266.67c0,49.87-39.04,88.91-88.85,88.91h-133.33c-49.87,0-88.91-39.04-88.91-88.91v-133.33c0-49.81,39.04-88.85,88.91-88.85h133.33c49.81,0,88.85,39.04,88.85,88.85v133.33Zm-88.85-200h-133.33c-37.39,0-66.67,29.28-66.67,66.67v133.33c0,37.39,29.28,66.67,66.67,66.67h133.33c37.39,0,66.67-29.28,66.67-66.67v-133.33c0-37.39-29.28-66.67-66.67-66.67Zm-66.67,211.15c-42.88,0-77.76-34.88-77.76-77.81s34.88-77.76,77.76-77.76,77.76,34.88,77.76,77.76-34.88,77.81-77.76,77.81Zm77.76-155.57c-6.13,0-11.09-4.96-11.09-11.09s4.96-11.15,11.09-11.15,11.09,5.01,11.09,11.15-4.96,11.09-11.09,11.09Zm-77.76,22.24c-30.67,0-55.57,24.91-55.57,55.52s24.91,55.57,55.57,55.57,55.57-24.91,55.57-55.57-24.96-55.52-55.57-55.52Z"/>
</svg>