<?xml version="1.0" encoding="UTF-8"?>
<svg id="Layer_1" data-name="Layer 1" xmlns="http://www.w3.org/2000/svg" viewBox="0 0 500 500">
  <defs>
    <style>
      .cls-1 {
        fill: #fff;
      }

      .cls-2, .cls-3 {
        fill: #1e90ff;
      }

      .cls-3 {
        fill-rule: evenodd;
      }
    </style>
  </defs>
  <path class="cls-2" d="m351.21,295.51c1.21,2.06,1.21,11.98-2.92,23.56-4.13,11.58-24.47,22.71-33.58,23.51-9.16.85-17.72,4.11-59.72-12.38-50.6-19.85-82.53-71.48-85.04-74.79-2.47-3.31-20.29-26.87-20.29-51.23s12.84-36.34,17.42-41.3c4.53-4.96,9.97-6.22,13.24-6.22s6.65,0,9.57.15c3.52.15,7.45.3,11.18,8.52,4.43,9.82,14.1,34.34,15.36,36.79,1.21,2.51,2.06,5.36.4,8.67-1.66,3.31-2.47,5.36-4.98,8.27-2.47,2.91-5.24,6.47-7.45,8.67-2.52,2.51-5.08,5.16-2.16,10.13,2.87,4.96,12.89,21.15,27.64,34.29,19.03,16.89,35.05,22.11,40.03,24.61,4.98,2.46,7.9,2.06,10.77-1.25,2.92-3.31,12.44-14.49,15.76-19.4,3.32-4.96,6.65-4.16,11.23-2.51,4.53,1.65,29,13.63,33.99,16.09,4.98,2.51,8.31,3.76,9.57,5.81Z"/>
  <path class="cls-2" d="m391.74,108.15c-37.61-37.44-87.61-58.1-140.89-58.15-109.77,0-199.14,88.92-199.19,198.2,0,34.94,9.16,69.07,26.64,99.1l-28.3,102.71,105.59-27.57c29.1,15.79,61.83,24.11,95.17,24.16h.1c109.77,0,199.14-88.92,199.14-198.25.05-52.93-20.64-102.76-58.26-140.2Zm-140.89,304.96h-.05c-29.71,0-58.86-7.97-84.29-22.96l-6.04-3.56-62.64,16.34,16.72-60.8-3.93-6.22c-16.57-26.27-25.33-56.54-25.33-87.67.05-90.88,74.32-164.76,165.61-164.76,44.21.05,85.8,17.19,117.02,48.32,31.27,31.13,48.49,72.53,48.49,116.54-.05,90.88-74.32,164.76-165.56,164.76Z"/>
  <path class="cls-2" d="m351.21,295.51c1.21,2.06,1.21,11.98-2.92,23.56-4.13,11.58-24.47,22.71-33.58,23.51-9.16.85-17.72,4.11-59.72-12.38-50.6-19.85-82.53-71.48-85.04-74.79-2.47-3.31-20.29-26.87-20.29-51.23s12.84-36.34,17.42-41.3c4.53-4.96,9.97-6.22,13.24-6.22s6.65,0,9.57.15c3.52.15,7.45.3,11.18,8.52,4.43,9.82,14.1,34.34,15.36,36.79,1.21,2.51,2.06,5.36.4,8.67-1.66,3.31-2.47,5.36-4.98,8.27-2.47,2.91-5.24,6.47-7.45,8.67-2.52,2.51-5.08,5.16-2.16,10.13,2.87,4.96,12.89,21.15,27.64,34.29,19.03,16.89,35.05,22.11,40.03,24.61,4.98,2.46,7.9,2.06,10.77-1.25,2.92-3.31,12.44-14.49,15.76-19.4,3.32-4.96,6.65-4.16,11.23-2.51,4.53,1.65,29,13.63,33.99,16.09,4.98,2.51,8.31,3.76,9.57,5.81Z"/>
  <path class="cls-1" d="m348.29,319.07c-4.13,11.58-24.47,22.71-33.58,23.51-9.16.85-17.72,4.11-59.72-12.38-50.6-19.85-82.53-71.48-85.04-74.79-2.47-3.31-20.29-26.87-20.29-51.23s12.84-36.34,17.42-41.3c4.53-4.96,9.97-6.22,13.24-6.22s6.65,0,9.57.15c3.52.15,7.45.3,11.18,8.52,4.43,9.82,14.1,34.34,15.36,36.79,1.21,2.51,2.06,5.36.4,8.67-1.66,3.31-2.47,5.36-4.98,8.27-2.47,2.91-5.24,6.47-7.45,8.67-2.52,2.51-5.08,5.16-2.16,10.13,2.87,4.96,12.89,21.15,27.64,34.29,19.03,16.89,35.05,22.11,40.03,24.61,4.98,2.46,7.9,2.06,10.77-1.25,2.92-3.31,12.44-14.49,15.76-19.4,3.32-4.96,6.65-4.16,11.23-2.51,4.53,1.65,29,13.63,33.99,16.09,4.98,2.51,8.31,3.76,9.57,5.81,1.21,2.06,1.21,11.98-2.92,23.56Z"/>
  <path class="cls-3" d="m348.29,319.07c-4.13,11.58-24.47,22.71-33.58,23.51-9.16.85-17.72,4.11-59.72-12.38-50.6-19.85-82.53-71.48-85.04-74.79-2.47-3.31-20.29-26.87-20.29-51.23s12.84-36.34,17.42-41.3c4.53-4.96,9.97-6.22,13.24-6.22s6.65,0,9.57.15c3.52.15,7.45.3,11.18,8.52,4.43,9.82,14.1,34.34,15.36,36.79,1.21,2.51,2.06,5.36.4,8.67-1.66,3.31-2.47,5.36-4.98,8.27-2.47,2.91-5.24,6.47-7.45,8.67-2.52,2.51-5.08,5.16-2.16,10.13,2.87,4.96,12.89,21.15,27.64,34.29,19.03,16.89,35.05,22.11,40.03,24.61,4.98,2.46,7.9,2.06,10.77-1.25,2.92-3.31,12.44-14.49,15.76-19.4,3.32-4.96,6.65-4.16,11.23-2.51,4.53,1.65,29,13.63,33.99,16.09,4.98,2.51,8.31,3.76,9.57,5.81,1.21,2.06,1.21,11.98-2.92,23.56Z"/>
</svg>